<?xml version="1.0" encoding="UTF-8" standalone="no"?>
<!DOCTYPE svg PUBLIC "-//W3C//DTD SVG 1.1//EN"
 "http://www.w3.org/Graphics/SVG/1.1/DTD/svg11.dtd">
<!-- Generated by graphviz version 2.38.0 (20140413.2041)
 -->
<!-- Title: scenes Pages: 1 -->
<svg width="250pt" height="1556pt"
 viewBox="0.00 0.00 250.13 1556.00" xmlns="http://www.w3.org/2000/svg" xmlns:xlink="http://www.w3.org/1999/xlink">
<g id="graph0" class="graph" transform="scale(1 1) rotate(0) translate(4 1552)">
<title>scenes</title>
<polygon fill="white" stroke="none" points="-4,4 -4,-1552 246.133,-1552 246.133,4 -4,4"/>
<!-- Splash -->
<g id="node1" class="node"><title>Splash</title>
<ellipse fill="none" stroke="black" cx="149.342" cy="-1530" rx="35.194" ry="18"/>
<text text-anchor="middle" x="149.342" y="-1526.3" font-family="Times New Roman,serif" font-size="14.00">Splash</text>
</g>
<!-- MainMenu -->
<g id="node2" class="node"><title>MainMenu</title>
<ellipse fill="none" stroke="black" cx="149.342" cy="-1458" rx="49.2915" ry="18"/>
<text text-anchor="middle" x="149.342" y="-1454.3" font-family="Times New Roman,serif" font-size="14.00">MainMenu</text>
</g>
<!-- Splash&#45;&gt;MainMenu -->
<g id="edge1" class="edge"><title>Splash&#45;&gt;MainMenu</title>
<path fill="none" stroke="black" d="M149.342,-1511.7C149.342,-1503.98 149.342,-1494.71 149.342,-1486.11"/>
<polygon fill="black" stroke="black" points="152.842,-1486.1 149.342,-1476.1 145.842,-1486.1 152.842,-1486.1"/>
</g>
<!-- Welcome -->
<g id="node3" class="node"><title>Welcome</title>
<ellipse fill="none" stroke="black" cx="149.342" cy="-1386" rx="45.4919" ry="18"/>
<text text-anchor="middle" x="149.342" y="-1382.3" font-family="Times New Roman,serif" font-size="14.00">Welcome</text>
</g>
<!-- MainMenu&#45;&gt;Welcome -->
<g id="edge2" class="edge"><title>MainMenu&#45;&gt;Welcome</title>
<path fill="none" stroke="black" d="M149.342,-1439.7C149.342,-1431.98 149.342,-1422.71 149.342,-1414.11"/>
<polygon fill="black" stroke="black" points="152.842,-1414.1 149.342,-1404.1 145.842,-1414.1 152.842,-1414.1"/>
</g>
<!-- SpecifyMasterGender -->
<g id="node4" class="node"><title>SpecifyMasterGender</title>
<ellipse fill="none" stroke="black" cx="90.342" cy="-1314" rx="90.1842" ry="18"/>
<text text-anchor="middle" x="90.342" y="-1310.3" font-family="Times New Roman,serif" font-size="14.00">SpecifyMasterGender</text>
</g>
<!-- Welcome&#45;&gt;SpecifyMasterGender -->
<g id="edge3" class="edge"><title>Welcome&#45;&gt;SpecifyMasterGender</title>
<path fill="none" stroke="black" d="M135.658,-1368.76C128.424,-1360.18 119.389,-1349.46 111.294,-1339.86"/>
<polygon fill="black" stroke="black" points="113.896,-1337.51 104.775,-1332.12 108.544,-1342.03 113.896,-1337.51"/>
</g>
<!-- AboutQuestion -->
<g id="node5" class="node"><title>AboutQuestion</title>
<ellipse fill="none" stroke="black" cx="149.342" cy="-1242" rx="66.0889" ry="18"/>
<text text-anchor="middle" x="149.342" y="-1238.3" font-family="Times New Roman,serif" font-size="14.00">AboutQuestion</text>
</g>
<!-- Welcome&#45;&gt;AboutQuestion -->
<g id="edge5" class="edge"><title>Welcome&#45;&gt;AboutQuestion</title>
<path fill="none" stroke="black" d="M165.827,-1368.99C174.655,-1359.24 184.655,-1345.99 189.342,-1332 194.424,-1316.83 194.424,-1311.17 189.342,-1296 185.882,-1285.67 179.525,-1275.74 172.883,-1267.33"/>
<polygon fill="black" stroke="black" points="175.367,-1264.85 166.241,-1259.47 170.018,-1269.37 175.367,-1264.85"/>
</g>
<!-- SpecifyMasterGender&#45;&gt;AboutQuestion -->
<g id="edge4" class="edge"><title>SpecifyMasterGender&#45;&gt;AboutQuestion</title>
<path fill="none" stroke="black" d="M104.624,-1296.05C111.799,-1287.54 120.627,-1277.07 128.539,-1267.68"/>
<polygon fill="black" stroke="black" points="131.423,-1269.69 135.191,-1259.79 126.07,-1265.18 131.423,-1269.69"/>
</g>
<!-- AboutGuess -->
<g id="node6" class="node"><title>AboutGuess</title>
<ellipse fill="none" stroke="black" cx="100.342" cy="-1170" rx="56.59" ry="18"/>
<text text-anchor="middle" x="100.342" y="-1166.3" font-family="Times New Roman,serif" font-size="14.00">AboutGuess</text>
</g>
<!-- AboutQuestion&#45;&gt;AboutGuess -->
<g id="edge6" class="edge"><title>AboutQuestion&#45;&gt;AboutGuess</title>
<path fill="none" stroke="black" d="M137.48,-1224.05C131.642,-1215.71 124.486,-1205.49 118.018,-1196.25"/>
<polygon fill="black" stroke="black" points="120.696,-1193.97 112.094,-1187.79 114.962,-1197.99 120.696,-1193.97"/>
</g>
<!-- AboutDetailed -->
<g id="node8" class="node"><title>AboutDetailed</title>
<ellipse fill="none" stroke="black" cx="143.342" cy="-1026" rx="63.0888" ry="18"/>
<text text-anchor="middle" x="143.342" y="-1022.3" font-family="Times New Roman,serif" font-size="14.00">AboutDetailed</text>
</g>
<!-- AboutQuestion&#45;&gt;AboutDetailed -->
<g id="edge9" class="edge"><title>AboutQuestion&#45;&gt;AboutDetailed</title>
<path fill="none" stroke="black" d="M156.387,-1223.83C167.587,-1194.12 186.874,-1131.38 173.342,-1080 170.811,-1070.39 166.093,-1060.69 161.137,-1052.26"/>
<polygon fill="black" stroke="black" points="164.035,-1050.3 155.757,-1043.68 158.104,-1054.02 164.035,-1050.3"/>
</g>
<!-- GuessResponse -->
<g id="node7" class="node"><title>GuessResponse</title>
<ellipse fill="none" stroke="black" cx="94.342" cy="-1098" rx="69.5877" ry="18"/>
<text text-anchor="middle" x="94.342" y="-1094.3" font-family="Times New Roman,serif" font-size="14.00">GuessResponse</text>
</g>
<!-- AboutGuess&#45;&gt;GuessResponse -->
<g id="edge7" class="edge"><title>AboutGuess&#45;&gt;GuessResponse</title>
<path fill="none" stroke="black" d="M98.8588,-1151.7C98.1976,-1143.98 97.4031,-1134.71 96.6659,-1126.11"/>
<polygon fill="black" stroke="black" points="100.149,-1125.77 95.8081,-1116.1 93.175,-1126.37 100.149,-1125.77"/>
</g>
<!-- GuessResponse&#45;&gt;AboutDetailed -->
<g id="edge8" class="edge"><title>GuessResponse&#45;&gt;AboutDetailed</title>
<path fill="none" stroke="black" d="M106.204,-1080.05C112.042,-1071.71 119.198,-1061.49 125.666,-1052.25"/>
<polygon fill="black" stroke="black" points="128.722,-1053.99 131.59,-1043.79 122.988,-1049.97 128.722,-1053.99"/>
</g>
<!-- WaitForReady -->
<g id="node9" class="node"><title>WaitForReady</title>
<ellipse fill="none" stroke="black" cx="97.342" cy="-954" rx="64.189" ry="18"/>
<text text-anchor="middle" x="97.342" y="-950.3" font-family="Times New Roman,serif" font-size="14.00">WaitForReady</text>
</g>
<!-- AboutDetailed&#45;&gt;WaitForReady -->
<g id="edge10" class="edge"><title>AboutDetailed&#45;&gt;WaitForReady</title>
<path fill="none" stroke="black" d="M132.207,-1008.05C126.726,-999.715 120.007,-989.491 113.936,-980.252"/>
<polygon fill="black" stroke="black" points="116.792,-978.224 108.375,-971.789 110.942,-982.068 116.792,-978.224"/>
</g>
<!-- OneMinuteDescription -->
<g id="node10" class="node"><title>OneMinuteDescription</title>
<ellipse fill="none" stroke="black" cx="143.342" cy="-882" rx="92.8835" ry="18"/>
<text text-anchor="middle" x="143.342" y="-878.3" font-family="Times New Roman,serif" font-size="14.00">OneMinuteDescription</text>
</g>
<!-- AboutDetailed&#45;&gt;OneMinuteDescription -->
<g id="edge12" class="edge"><title>AboutDetailed&#45;&gt;OneMinuteDescription</title>
<path fill="none" stroke="black" d="M154.528,-1008.14C160.507,-998.103 167.257,-984.853 170.342,-972 174.077,-956.442 174.077,-951.558 170.342,-936 168.135,-926.807 164.054,-917.412 159.721,-909.134"/>
<polygon fill="black" stroke="black" points="162.739,-907.359 154.809,-900.333 156.627,-910.771 162.739,-907.359"/>
</g>
<!-- WaitForReady&#45;&gt;OneMinuteDescription -->
<g id="edge11" class="edge"><title>WaitForReady&#45;&gt;OneMinuteDescription</title>
<path fill="none" stroke="black" d="M108.477,-936.055C113.877,-927.837 120.479,-917.791 126.48,-908.66"/>
<polygon fill="black" stroke="black" points="129.423,-910.555 131.99,-900.275 123.573,-906.71 129.423,-910.555"/>
</g>
<!-- OneMinuteChallenge -->
<g id="node11" class="node"><title>OneMinuteChallenge</title>
<ellipse fill="none" stroke="black" cx="143.342" cy="-810" rx="85.5853" ry="18"/>
<text text-anchor="middle" x="143.342" y="-806.3" font-family="Times New Roman,serif" font-size="14.00">OneMinuteChallenge</text>
</g>
<!-- OneMinuteDescription&#45;&gt;OneMinuteChallenge -->
<g id="edge13" class="edge"><title>OneMinuteDescription&#45;&gt;OneMinuteChallenge</title>
<path fill="none" stroke="black" d="M143.342,-863.697C143.342,-855.983 143.342,-846.712 143.342,-838.112"/>
<polygon fill="black" stroke="black" points="146.842,-838.104 143.342,-828.104 139.842,-838.104 146.842,-838.104"/>
</g>
<!-- OneMinuteResult -->
<g id="node12" class="node"><title>OneMinuteResult</title>
<ellipse fill="none" stroke="black" cx="143.342" cy="-738" rx="73.387" ry="18"/>
<text text-anchor="middle" x="143.342" y="-734.3" font-family="Times New Roman,serif" font-size="14.00">OneMinuteResult</text>
</g>
<!-- OneMinuteChallenge&#45;&gt;OneMinuteResult -->
<g id="edge14" class="edge"><title>OneMinuteChallenge&#45;&gt;OneMinuteResult</title>
<path fill="none" stroke="black" d="M143.342,-791.697C143.342,-783.983 143.342,-774.712 143.342,-766.112"/>
<polygon fill="black" stroke="black" points="146.842,-766.104 143.342,-756.104 139.842,-766.104 146.842,-766.104"/>
</g>
<!-- TwoMinutesDescription -->
<g id="node13" class="node"><title>TwoMinutesDescription</title>
<ellipse fill="none" stroke="black" cx="143.342" cy="-666" rx="98.5829" ry="18"/>
<text text-anchor="middle" x="143.342" y="-662.3" font-family="Times New Roman,serif" font-size="14.00">TwoMinutesDescription</text>
</g>
<!-- OneMinuteResult&#45;&gt;TwoMinutesDescription -->
<g id="edge15" class="edge"><title>OneMinuteResult&#45;&gt;TwoMinutesDescription</title>
<path fill="none" stroke="black" d="M143.342,-719.697C143.342,-711.983 143.342,-702.712 143.342,-694.112"/>
<polygon fill="black" stroke="black" points="146.842,-694.104 143.342,-684.104 139.842,-694.104 146.842,-694.104"/>
</g>
<!-- TwoMinutesChallenge -->
<g id="node14" class="node"><title>TwoMinutesChallenge</title>
<ellipse fill="none" stroke="black" cx="143.342" cy="-594" rx="91.784" ry="18"/>
<text text-anchor="middle" x="143.342" y="-590.3" font-family="Times New Roman,serif" font-size="14.00">TwoMinutesChallenge</text>
</g>
<!-- TwoMinutesDescription&#45;&gt;TwoMinutesChallenge -->
<g id="edge16" class="edge"><title>TwoMinutesDescription&#45;&gt;TwoMinutesChallenge</title>
<path fill="none" stroke="black" d="M143.342,-647.697C143.342,-639.983 143.342,-630.712 143.342,-622.112"/>
<polygon fill="black" stroke="black" points="146.842,-622.104 143.342,-612.104 139.842,-622.104 146.842,-622.104"/>
</g>
<!-- TwoMinutesResult -->
<g id="node15" class="node"><title>TwoMinutesResult</title>
<ellipse fill="none" stroke="black" cx="143.342" cy="-522" rx="79.0865" ry="18"/>
<text text-anchor="middle" x="143.342" y="-518.3" font-family="Times New Roman,serif" font-size="14.00">TwoMinutesResult</text>
</g>
<!-- TwoMinutesChallenge&#45;&gt;TwoMinutesResult -->
<g id="edge17" class="edge"><title>TwoMinutesChallenge&#45;&gt;TwoMinutesResult</title>
<path fill="none" stroke="black" d="M143.342,-575.697C143.342,-567.983 143.342,-558.712 143.342,-550.112"/>
<polygon fill="black" stroke="black" points="146.842,-550.104 143.342,-540.104 139.842,-550.104 146.842,-550.104"/>
</g>
<!-- FiveMinutesDescription -->
<g id="node16" class="node"><title>FiveMinutesDescription</title>
<ellipse fill="none" stroke="black" cx="143.342" cy="-450" rx="96.6831" ry="18"/>
<text text-anchor="middle" x="143.342" y="-446.3" font-family="Times New Roman,serif" font-size="14.00">FiveMinutesDescription</text>
</g>
<!-- TwoMinutesResult&#45;&gt;FiveMinutesDescription -->
<g id="edge18" class="edge"><title>TwoMinutesResult&#45;&gt;FiveMinutesDescription</title>
<path fill="none" stroke="black" d="M143.342,-503.697C143.342,-495.983 143.342,-486.712 143.342,-478.112"/>
<polygon fill="black" stroke="black" points="146.842,-478.104 143.342,-468.104 139.842,-478.104 146.842,-478.104"/>
</g>
<!-- FiveMinutesChallenge -->
<g id="node17" class="node"><title>FiveMinutesChallenge</title>
<ellipse fill="none" stroke="black" cx="143.342" cy="-378" rx="90.1842" ry="18"/>
<text text-anchor="middle" x="143.342" y="-374.3" font-family="Times New Roman,serif" font-size="14.00">FiveMinutesChallenge</text>
</g>
<!-- FiveMinutesDescription&#45;&gt;FiveMinutesChallenge -->
<g id="edge19" class="edge"><title>FiveMinutesDescription&#45;&gt;FiveMinutesChallenge</title>
<path fill="none" stroke="black" d="M143.342,-431.697C143.342,-423.983 143.342,-414.712 143.342,-406.112"/>
<polygon fill="black" stroke="black" points="146.842,-406.104 143.342,-396.104 139.842,-406.104 146.842,-406.104"/>
</g>
<!-- FiveMinutesResult -->
<g id="node18" class="node"><title>FiveMinutesResult</title>
<ellipse fill="none" stroke="black" cx="143.342" cy="-306" rx="77.9862" ry="18"/>
<text text-anchor="middle" x="143.342" y="-302.3" font-family="Times New Roman,serif" font-size="14.00">FiveMinutesResult</text>
</g>
<!-- FiveMinutesChallenge&#45;&gt;FiveMinutesResult -->
<g id="edge20" class="edge"><title>FiveMinutesChallenge&#45;&gt;FiveMinutesResult</title>
<path fill="none" stroke="black" d="M143.342,-359.697C143.342,-351.983 143.342,-342.712 143.342,-334.112"/>
<polygon fill="black" stroke="black" points="146.842,-334.104 143.342,-324.104 139.842,-334.104 146.842,-334.104"/>
</g>
<!-- TenMinutesDescription -->
<g id="node19" class="node"><title>TenMinutesDescription</title>
<ellipse fill="none" stroke="black" cx="143.342" cy="-234" rx="95.5831" ry="18"/>
<text text-anchor="middle" x="143.342" y="-230.3" font-family="Times New Roman,serif" font-size="14.00">TenMinutesDescription</text>
</g>
<!-- FiveMinutesResult&#45;&gt;TenMinutesDescription -->
<g id="edge21" class="edge"><title>FiveMinutesResult&#45;&gt;TenMinutesDescription</title>
<path fill="none" stroke="black" d="M143.342,-287.697C143.342,-279.983 143.342,-270.712 143.342,-262.112"/>
<polygon fill="black" stroke="black" points="146.842,-262.104 143.342,-252.104 139.842,-262.104 146.842,-262.104"/>
</g>
<!-- TenMinutesChallenge -->
<g id="node20" class="node"><title>TenMinutesChallenge</title>
<ellipse fill="none" stroke="black" cx="143.342" cy="-162" rx="89.0842" ry="18"/>
<text text-anchor="middle" x="143.342" y="-158.3" font-family="Times New Roman,serif" font-size="14.00">TenMinutesChallenge</text>
</g>
<!-- TenMinutesDescription&#45;&gt;TenMinutesChallenge -->
<g id="edge22" class="edge"><title>TenMinutesDescription&#45;&gt;TenMinutesChallenge</title>
<path fill="none" stroke="black" d="M143.342,-215.697C143.342,-207.983 143.342,-198.712 143.342,-190.112"/>
<polygon fill="black" stroke="black" points="146.842,-190.104 143.342,-180.104 139.842,-190.104 146.842,-190.104"/>
</g>
<!-- TenMinutesResult -->
<g id="node21" class="node"><title>TenMinutesResult</title>
<ellipse fill="none" stroke="black" cx="143.342" cy="-90" rx="76.8869" ry="18"/>
<text text-anchor="middle" x="143.342" y="-86.3" font-family="Times New Roman,serif" font-size="14.00">TenMinutesResult</text>
</g>
<!-- TenMinutesChallenge&#45;&gt;TenMinutesResult -->
<g id="edge23" class="edge"><title>TenMinutesChallenge&#45;&gt;TenMinutesResult</title>
<path fill="none" stroke="black" d="M143.342,-143.697C143.342,-135.983 143.342,-126.712 143.342,-118.112"/>
<polygon fill="black" stroke="black" points="146.842,-118.104 143.342,-108.104 139.842,-118.104 146.842,-118.104"/>
</g>
<!-- WannaSeeStatistics -->
<g id="node22" class="node"><title>WannaSeeStatistics</title>
<ellipse fill="none" stroke="black" cx="143.342" cy="-18" rx="81.7856" ry="18"/>
<text text-anchor="middle" x="143.342" y="-14.3" font-family="Times New Roman,serif" font-size="14.00">WannaSeeStatistics</text>
</g>
<!-- TenMinutesResult&#45;&gt;WannaSeeStatistics -->
<g id="edge24" class="edge"><title>TenMinutesResult&#45;&gt;WannaSeeStatistics</title>
<path fill="none" stroke="black" d="M143.342,-71.6966C143.342,-63.9827 143.342,-54.7125 143.342,-46.1124"/>
<polygon fill="black" stroke="black" points="146.842,-46.1043 143.342,-36.1043 139.842,-46.1044 146.842,-46.1043"/>
</g>
</g>
</svg>
